<svg xmlns="http://www.w3.org/2000/svg" viewBox="0 0 64 64">
  <defs>
    <style>
      .w { fill: #ffffff; }
    </style>
  </defs>
  <g class="w">
    <path d="M32 10c6 0 11 4 11 10 0 3-2 6-5 8 3 1 6 4 6 8 0 6-5 10-12 10s-12-4-12-10c0-4 3-7 6-8-3-2-5-5-5-8 0-6 5-10 11-10zm0 4c-3 0-6 2-6 6 0 3 2 5 6 7 4-2 6-4 6-7 0-4-3-6-6-6zm0 18c-5 2-8 4-8 8 0 4 3 6 8 6s8-2 8-6c0-4-3-6-8-8z"/>
    <path d="M26 49c-5 2-9 4-12 7 3-6 7-10 12-12l0 5z"/>
    <path d="M38 49c5 2 9 4 12 7-3-6-7-10-12-12l0 5z"/>
    <circle cx="32" cy="13" r="2"/>
  </g>
</svg>
